<svg xmlns="http://www.w3.org/2000/svg" viewBox="0 0 16 16" width="16" height="16"><path fill="black" d="M3.25 1A2.25 2.25 0 0 1 4 5.372v5.256a2.251 2.251 0 1 1-1.5 0V5.372A2.25 2.25 0 0 1 3.25 1Zm9.5 5.5a.75.75 0 0 1 .75.75v3.378a2.251 2.251 0 1 1-1.5 0V7.25a.75.75 0 0 1 .75-.75Zm-2.03-5.28a.751.751 0 0 1 1.042.018.751.751 0 0 1 .018 1.042L10.56 3.5l1.22 1.22a.749.749 0 0 1-.326 1.275.749.749 0 0 1-.734-.215L9.5 4.56 8.28 5.78a.751.751 0 0 1-1.042-.018.751.751 0 0 1-.018-1.042L8.44 3.5 7.22 2.28a.751.751 0 0 1 .018-1.042.751.751 0 0 1 1.042-.018L9.5 2.44ZM3.25 12a.75.75 0 1 0 0 1.5.75.75 0 0 0 0-1.5Zm9.5 0a.75.75 0 1 0 0 1.5.75.75 0 0 0 0-1.5ZM2.5 3.25a.75.75 0 1 0 1.5 0 .75.75 0 0 0-1.5 0Z"/></svg>
